<svg width="24" height="24" viewBox="0 0 24 24" fill="none" xmlns="http://www.w3.org/2000/svg">
<path d="M4 10H22M8 3V5M18 3V5M7.2 21H18.8C19.9201 21 20.4802 21 20.908 20.782C21.2843 20.5903 21.5903 20.2843 21.782 19.908C22 19.4802 22 18.9201 22 17.8V8.2C22 7.07989 22 6.51984 21.782 6.09202C21.5903 5.71569 21.2843 5.40973 20.908 5.21799C20.4802 5 19.9201 5 18.8 5H7.2C6.0799 5 5.51984 5 5.09202 5.21799C4.71569 5.40973 4.40973 5.71569 4.21799 6.09202C4 6.51984 4 7.07989 4 8.2V17.8C4 18.9201 4 19.4802 4.21799 19.908C4.40973 20.2843 4.71569 20.5903 5.09202 20.782C5.51984 21 6.07989 21 7.2 21Z" stroke="#F1F5F9" stroke-width="1.5" stroke-linecap="round" stroke-linejoin="round"/>
</svg>
