<svg width="24" height="24" viewBox="0 0 24 24" fill="none" xmlns="http://www.w3.org/2000/svg">
<mask id="mask0_175_928" style="mask-type:alpha" maskUnits="userSpaceOnUse" x="0" y="0" width="24" height="24">
<rect width="24" height="24" fill="#D9D9D9"/>
</mask>
<g mask="url(#mask0_175_928)">
<path d="M9.54991 14.6695L17.7707 6.44899C18.0365 6.18299 18.3498 6.04999 18.7107 6.04999C19.0717 6.04999 19.3851 6.18299 19.6509 6.44899C19.9169 6.71482 20.0499 7.02999 20.0499 7.39449C20.0499 7.75899 19.9169 8.07424 19.6509 8.34024L10.4902 17.512C10.2242 17.778 9.91074 17.911 9.54991 17.911C9.18908 17.911 8.87566 17.778 8.60966 17.512L4.33791 13.2402C4.07191 12.9742 3.94074 12.659 3.94441 12.2945C3.94808 11.93 4.08291 11.6148 4.34891 11.349C4.61474 11.083 4.92991 10.95 5.29441 10.95C5.65891 10.95 5.97416 11.083 6.24016 11.349L9.54991 14.6695Z" fill="white"/>
</g>
</svg>
