<svg width="24" height="24" viewBox="0 0 24 24" fill="none" xmlns="http://www.w3.org/2000/svg">
<mask id="mask0_83_1037" style="mask-type:alpha" maskUnits="userSpaceOnUse" x="0" y="0" width="24" height="24">
<rect width="24" height="24" fill="#D9D9D9"/>
</mask>
<g mask="url(#mask0_83_1037)">
<path d="M17.8501 19.95L13.4251 15.525L15.5251 13.425L19.9501 17.85C20.2334 18.1333 20.3751 18.4833 20.3751 18.9C20.3751 19.3167 20.2334 19.6667 19.9501 19.95C19.6667 20.2333 19.3167 20.375 18.9001 20.375C18.4834 20.375 18.1334 20.2333 17.8501 19.95ZM4.05007 19.95C3.76673 19.6667 3.62507 19.3167 3.62507 18.9C3.62507 18.4833 3.76673 18.1333 4.05007 17.85L9.90006 12L8.20007 10.3C8.01673 10.4833 7.7834 10.575 7.50007 10.575C7.21673 10.575 6.9834 10.4833 6.80007 10.3L6.22507 9.72501V11.975C6.22507 12.2083 6.12507 12.3667 5.92507 12.45C5.72507 12.5333 5.54173 12.4917 5.37507 12.325L2.65007 9.60001C2.4834 9.43334 2.44173 9.25001 2.52507 9.05001C2.6084 8.85001 2.76673 8.75001 3.00007 8.75001H5.25007L4.70007 8.20001C4.50007 8.00001 4.40007 7.76667 4.40007 7.50001C4.40007 7.23334 4.50007 7.00001 4.70007 6.80001L7.55007 3.95001C7.8834 3.61667 8.24173 3.37501 8.62507 3.22501C9.0084 3.07501 9.40006 3.00001 9.80007 3.00001C10.1334 3.00001 10.4459 3.05001 10.7376 3.15001C11.0292 3.25001 11.3167 3.40001 11.6001 3.60001C11.7334 3.68334 11.8042 3.80001 11.8126 3.95001C11.8209 4.10001 11.7667 4.23334 11.6501 4.35001L9.75006 6.25001L10.3001 6.80001C10.4834 6.98334 10.5751 7.21667 10.5751 7.50001C10.5751 7.78334 10.4834 8.01667 10.3001 8.20001L12.0001 9.90001L14.2501 7.65001C14.1834 7.46667 14.1292 7.27501 14.0876 7.07501C14.0459 6.87501 14.0251 6.67501 14.0251 6.47501C14.0251 5.49167 14.3626 4.66251 15.0376 3.98751C15.7126 3.31251 16.5417 2.97501 17.5251 2.97501C17.6584 2.97501 17.7834 2.97917 17.9001 2.98751C18.0167 2.99584 18.1334 3.01667 18.2501 3.05001C18.4001 3.10001 18.4959 3.20417 18.5376 3.36251C18.5792 3.52084 18.5417 3.65834 18.4251 3.77501L16.8001 5.40001C16.7001 5.50001 16.6501 5.61667 16.6501 5.75001C16.6501 5.88334 16.7001 6.00001 16.8001 6.10001L17.9001 7.20001C18.0001 7.30001 18.1167 7.35001 18.2501 7.35001C18.3834 7.35001 18.5001 7.30001 18.6001 7.20001L20.2251 5.57501C20.3417 5.45834 20.4792 5.41667 20.6376 5.45001C20.7959 5.48334 20.9001 5.58334 20.9501 5.75001C20.9834 5.86667 21.0042 5.98334 21.0126 6.10001C21.0209 6.21667 21.0251 6.34167 21.0251 6.47501C21.0251 7.45834 20.6876 8.28751 20.0126 8.96251C19.3376 9.63751 18.5084 9.97501 17.5251 9.97501C17.3251 9.97501 17.1251 9.95834 16.9251 9.92501C16.7251 9.89167 16.5334 9.83334 16.3501 9.75001L6.15007 19.95C5.86673 20.2333 5.51673 20.375 5.10006 20.375C4.6834 20.375 4.3334 20.2333 4.05007 19.95Z" fill="#F1F5F9"/>
</g>
</svg>
