<svg width="24" height="24" viewBox="0 0 24 24" fill="none" xmlns="http://www.w3.org/2000/svg">
<mask id="mask0_72_619" style="mask-type:alpha" maskUnits="userSpaceOnUse" x="0" y="0" width="24" height="24">
<rect width="24" height="24" fill="#D9D9D9"/>
</mask>
<g mask="url(#mask0_72_619)">
<path d="M9.99995 21C9.71662 21 9.47912 20.9042 9.28745 20.7125C9.09578 20.5208 8.99995 20.2833 8.99995 20V8H5.19995C4.88328 8 4.62495 7.88333 4.42495 7.65C4.22495 7.41667 4.15828 7.14167 4.22495 6.825C4.44162 5.69167 5.00412 4.77083 5.91245 4.0625C6.82078 3.35417 7.84995 3 8.99995 3H14C14.2833 3 14.5208 3.09583 14.7125 3.2875C14.9041 3.47917 15 3.71667 15 4V6L17.55 3.45C17.6833 3.31667 17.8458 3.20833 18.0375 3.125C18.2291 3.04167 18.425 3 18.625 3H19C19.2833 3 19.5208 3.09583 19.7125 3.2875C19.9041 3.47917 20 3.71667 20 4V10C20 10.2833 19.9041 10.5208 19.7125 10.7125C19.5208 10.9042 19.2833 11 19 11H18.625C18.425 11 18.2291 10.9583 18.0375 10.875C17.8458 10.7917 17.6833 10.6833 17.55 10.55L15 8V20C15 20.2833 14.9041 20.5208 14.7125 20.7125C14.5208 20.9042 14.2833 21 14 21H9.99995ZM11 19H13V13H11V19ZM11 11H13V5H8.99995C8.56662 5 8.15828 5.0875 7.77495 5.2625C7.39162 5.4375 7.05828 5.68333 6.77495 6H11V11Z" fill="#F1F5F9"/>
</g>
</svg>
