<svg width="24" height="24" viewBox="0 0 24 24" fill="none" xmlns="http://www.w3.org/2000/svg">
<path d="M3.99985 7H19.9998M4.99985 4H18.9998M6.89581 20H17.1039C18.127 20 18.6385 20 19.0442 19.8084C19.4015 19.6396 19.7007 19.3687 19.9043 19.03C20.1353 18.6454 20.1862 18.1364 20.288 17.1184L20.736 12.6388C20.8274 11.7244 20.8731 11.2672 20.7231 10.9138C20.5913 10.6034 20.3588 10.3465 20.063 10.1844C19.7263 10 19.2668 10 18.3479 10H5.65182C4.73287 10 4.2734 10 3.93669 10.1844C3.64092 10.3465 3.40838 10.6034 3.2766 10.9138C3.12657 11.2672 3.17229 11.7244 3.26373 12.6388L3.71169 17.1184C3.81349 18.1364 3.86439 18.6454 4.09544 19.03C4.29894 19.3687 4.59823 19.6396 4.95552 19.8084C5.36118 20 5.87272 20 6.89581 20ZM14.9998 15C14.9998 16.1046 13.6567 17 11.9998 17C10.343 17 8.99985 16.1046 8.99985 15C8.99985 13.8954 10.343 13 11.9998 13C13.6567 13 14.9998 13.8954 14.9998 15Z" stroke="#F1F5F9" stroke-width="1.5" stroke-linecap="round" stroke-linejoin="round"/>
</svg>
