<svg width="24" height="24" viewBox="0 0 24 24" fill="none" xmlns="http://www.w3.org/2000/svg">
<path d="M16.9502 7.0498H16.9402M13.4882 3H16.2C17.8802 3 18.7202 3 19.362 3.32698C19.9265 3.6146 20.3854 4.07354 20.673 4.63803C21 5.27976 21 6.11984 21 7.8V10.5118C21 11.2455 21 11.6124 20.9171 11.9577C20.8436 12.2638 20.7224 12.5564 20.5579 12.8249C20.3724 13.1276 20.113 13.387 19.5941 13.9059L14.8941 18.6059C13.7061 19.7939 13.112 20.388 12.4271 20.6105C11.8245 20.8063 11.1755 20.8063 10.5729 20.6105C9.88797 20.388 9.29393 19.7939 8.10589 18.6059L5.39411 15.8941C4.20607 14.7061 3.61203 14.112 3.38947 13.4271C3.1937 12.8245 3.1937 12.1755 3.38947 11.5729C3.61204 10.888 4.20607 10.2939 5.39411 9.10589L10.0941 4.40589C10.613 3.88703 10.8724 3.6276 11.1751 3.44208C11.4436 3.27759 11.7362 3.15638 12.0423 3.08289C12.3876 3 12.7545 3 13.4882 3ZM16.4502 7.0498C16.4502 7.32595 16.6741 7.5498 16.9502 7.5498C17.2263 7.5498 17.4502 7.32595 17.4502 7.0498C17.4502 6.77366 17.2263 6.5498 16.9502 6.5498C16.6741 6.5498 16.4502 6.77366 16.4502 7.0498Z" stroke="#F1F5F9" stroke-width="1.5" stroke-linecap="round" stroke-linejoin="round"/>
</svg>
